<svg width="18" height="17" viewBox="0 0 18 17" fill="none" xmlns="http://www.w3.org/2000/svg">
<path d="M6.93555 3.0752C7.24503 2.17048 8.4977 2.13443 8.87012 2.98145L8.90625 3.0752V3.07617L9.5791 5.04297C9.76212 5.57852 10.0578 6.06891 10.4463 6.48047C10.8348 6.89193 11.307 7.2152 11.8311 7.42871L11.8398 7.43262L11.8486 7.43555L12.0293 7.50293L12.0371 7.50586L12.0459 7.50879L14.0127 8.18066C14.9189 8.49061 14.9534 9.74683 14.1035 10.1172L13.9951 10.1582L12.0459 10.8242C11.5102 11.0071 11.0201 11.303 10.6084 11.6914C10.1968 12.0798 9.87283 12.5521 9.65918 13.0762L9.65527 13.085L9.65234 13.0928L9.58496 13.2734L9.5791 13.291L8.90723 15.2578C8.61621 16.1095 7.49004 16.1914 7.04785 15.4951L6.96973 15.3457L6.93262 15.25L6.26367 13.291C6.08078 12.7554 5.78493 12.2652 5.39648 11.8535C5.00794 11.4418 4.53502 11.1179 4.01074 10.9043L3.99512 10.8984L3.81445 10.8311L3.80566 10.8271L3.79688 10.8242L1.83105 10.1523C0.9235 9.8424 0.888813 8.58555 1.73828 8.21582L1.83691 8.17773L3.79688 7.50879H3.79785C4.33321 7.32579 4.82294 7.02996 5.23438 6.6416C5.64594 6.25308 5.97005 5.78098 6.18359 5.25684L6.18652 5.24805L6.25684 5.06055L6.26074 5.05176L6.26367 5.04297L6.93555 3.0752ZM14.5879 0.625C14.6268 0.625014 14.6652 0.635641 14.6982 0.65625C14.7291 0.675524 14.7533 0.703331 14.7705 0.735352L14.7891 0.782227L15.0762 1.62109L15.1758 1.91211L15.4658 2.01074L16.3223 2.30273C16.3613 2.31599 16.3958 2.34036 16.4209 2.37305C16.4459 2.40574 16.4612 2.44524 16.4639 2.48633C16.4665 2.5275 16.4563 2.56881 16.4355 2.60449C16.4162 2.63777 16.3873 2.66343 16.3535 2.68164L16.2891 2.70801L15.4668 2.98828L15.1758 3.08789L15.0771 3.37793L14.7852 4.23438C14.7719 4.27341 14.7476 4.30795 14.7148 4.33301C14.6822 4.358 14.6426 4.37234 14.6016 4.375C14.5604 4.37761 14.519 4.36835 14.4834 4.34766C14.4494 4.32792 14.4225 4.29839 14.4043 4.26367L14.3779 4.19824L14.0996 3.37891L14 3.08789L13.709 2.98926L12.8535 2.69727L12.7988 2.66895C12.7823 2.65711 12.7674 2.64322 12.7549 2.62695C12.7298 2.59427 12.7146 2.55476 12.7119 2.51367C12.7093 2.47251 12.7195 2.43119 12.7402 2.39551C12.7595 2.36234 12.7876 2.33558 12.8213 2.31738L12.8877 2.29102L13.709 2.01172L13.999 1.91211L14.0986 1.62207L14.3906 0.765625C14.4047 0.724806 14.4307 0.689235 14.4658 0.664062C14.5012 0.638769 14.5444 0.624974 14.5879 0.625Z" stroke="#484D59" stroke-width="1.25"/>
</svg>
