<svg width="16" height="17" viewBox="0 0 16 17" fill="none" xmlns="http://www.w3.org/2000/svg">
<path d="M7.91699 0.625C8.31668 0.625 8.58565 0.625571 8.79395 0.639648C8.99675 0.653362 9.09641 0.678086 9.16211 0.705078H9.16309C9.29019 0.757012 9.40552 0.833903 9.50293 0.930664C9.60036 1.02747 9.6777 1.14273 9.73047 1.26953L9.73145 1.27148C9.75607 1.3299 9.7777 1.41423 9.79199 1.5791L9.80371 1.77344C9.81372 2.10466 9.90734 2.42805 10.0752 2.71387C10.2447 3.00239 10.4854 3.24375 10.7734 3.41406L10.7871 3.42188C11.0802 3.5849 11.4098 3.6711 11.7451 3.67285C12.0778 3.67454 12.4053 3.59211 12.6982 3.43457L12.6992 3.43555C12.9622 3.29706 13.0871 3.25704 13.1768 3.24512L13.1758 3.24414C13.4193 3.21237 13.6656 3.26696 13.873 3.39453L13.959 3.4541C14.0152 3.49741 14.0856 3.57033 14.1973 3.73535C14.3135 3.90706 14.4482 4.13763 14.6484 4.48145C14.8483 4.82468 14.9827 5.05576 15.0742 5.24121C15.1616 5.41846 15.1895 5.5153 15.1992 5.58398V5.58496C15.2169 5.72052 15.2084 5.85823 15.1729 5.99023C15.1374 6.12173 15.0761 6.24548 14.9932 6.35352C14.9525 6.40585 14.8885 6.46819 14.751 6.56348L14.5869 6.66992C14.0247 7.02017 13.6417 7.63345 13.6416 8.33301C13.6416 9.03354 14.0256 9.64726 14.5889 9.99805V9.99707C14.7796 10.1164 14.8804 10.1953 14.9414 10.2559L14.9912 10.3115C15.0748 10.4198 15.1361 10.5438 15.1719 10.6758C15.2076 10.8079 15.2168 10.9463 15.1992 11.082C15.1896 11.1511 15.1619 11.248 15.0742 11.4258C15.0285 11.5184 14.9721 11.6225 14.9023 11.7461L14.6484 12.1855C14.4488 12.5291 14.3143 12.7601 14.1982 12.9316C14.0853 13.0985 14.0139 13.1713 13.958 13.2139C13.7359 13.383 13.4545 13.4576 13.1768 13.4209C13.0877 13.409 12.9639 13.3703 12.7051 13.2344H12.7061C12.4115 13.0746 12.0812 12.9925 11.7461 12.9941C11.4109 12.9958 11.0811 13.0813 10.7881 13.2441L10.7812 13.248C10.1747 13.5956 9.82826 14.2302 9.80371 14.8936C9.79187 15.1936 9.76427 15.3166 9.73145 15.3945L9.73047 15.3975C9.6777 15.5242 9.60031 15.6396 9.50293 15.7363C9.40555 15.833 9.29012 15.91 9.16309 15.9619H9.16211C9.0964 15.9889 8.99676 16.0136 8.79395 16.0273C8.58565 16.0414 8.31668 16.042 7.91699 16.042C7.51729 16.042 7.24834 16.0414 7.04004 16.0273C6.83716 16.0136 6.73759 15.9889 6.67188 15.9619C6.41326 15.8556 6.20949 15.6518 6.10352 15.3975L6.10156 15.3945C6.06882 15.3167 6.04114 15.1936 6.0293 14.8945H6.03027C6.00523 14.2315 5.66017 13.5979 5.05469 13.249L5.04688 13.2451L4.93457 13.1875C4.67071 13.0618 4.38215 12.9947 4.08887 12.9932C3.79542 12.9917 3.5055 13.0556 3.24023 13.1787L3.13477 13.2314C2.87143 13.3701 2.74598 13.409 2.65625 13.4209C2.41213 13.4523 2.16659 13.3992 1.96094 13.2725L1.87598 13.2139C1.81958 13.1707 1.74836 13.098 1.63574 12.9316C1.51957 12.76 1.38572 12.5293 1.18555 12.1855C0.985603 11.8422 0.851258 11.6113 0.759766 11.4258C0.670722 11.2453 0.643063 11.148 0.633789 11.0791C0.61658 10.9442 0.62571 10.8071 0.661133 10.6758C0.696593 10.5444 0.757996 10.4215 0.84082 10.3135C0.894982 10.2437 0.991168 10.1564 1.24707 9.99609L1.24609 9.99512C1.80829 9.64481 2.19238 9.03266 2.19238 8.33301C2.19226 7.63271 1.80817 7.0197 1.24512 6.66895H1.24609C0.991355 6.50963 0.895564 6.42387 0.842773 6.35547L0.841797 6.35449L0.783203 6.26953C0.673655 6.09491 0.619315 5.89276 0.625977 5.68848L0.633789 5.58691C0.643125 5.51771 0.671118 5.4209 0.759766 5.24121C0.851254 5.05583 0.985526 4.82489 1.18555 4.48145V4.48047C1.38509 4.13712 1.51968 3.90685 1.63574 3.73535C1.7481 3.56936 1.81826 3.49575 1.87402 3.45312L1.875 3.4541C2.09802 3.28482 2.3786 3.20835 2.65625 3.24414V3.24512C2.74595 3.25698 2.87161 3.29602 3.13477 3.43457C3.42773 3.59217 3.75516 3.67451 4.08789 3.67285C4.42309 3.67115 4.75291 3.58473 5.0459 3.42188L5.05957 3.41406C5.34781 3.24393 5.58807 3.00331 5.75781 2.71484C5.92756 2.42631 6.0206 2.09833 6.0293 1.76367C6.04135 1.47095 6.06911 1.34848 6.10156 1.27148L6.10352 1.26953C6.15628 1.14273 6.23362 1.02747 6.33105 0.930664C6.40414 0.858079 6.4874 0.796996 6.57812 0.749023L6.6709 0.705078C6.73739 0.677835 6.83766 0.653351 7.04004 0.639648C7.24823 0.625571 7.51727 0.625 7.91699 0.625ZM7.91699 5.20801C6.18569 5.20801 4.77264 6.60256 4.77246 8.33301C4.77246 10.0636 6.18558 11.458 7.91699 11.458C9.64934 11.458 11.0615 10.0635 11.0615 8.33301C11.0613 6.60258 9.64826 5.20804 7.91699 5.20801Z" stroke="#484D59" stroke-width="1.25"/>
</svg>
