<svg width="18" height="18" viewBox="0 0 18 18" fill="none" xmlns="http://www.w3.org/2000/svg">
<path fill-rule="evenodd" clip-rule="evenodd" d="M9.59772 0.914002C9.44144 0.757776 9.22952 0.670013 9.00855 0.670013C8.78758 0.670013 8.57566 0.757776 8.41938 0.914002L2.58605 6.74734L0.919385 8.414C0.839793 8.49087 0.776308 8.58283 0.732634 8.6845C0.68896 8.78617 0.665971 8.89552 0.665009 9.00617C0.664048 9.11682 0.685133 9.22655 0.727033 9.32896C0.768934 9.43138 0.830812 9.52442 0.909056 9.60266C0.9873 9.68091 1.08034 9.74279 1.18276 9.78469C1.28517 9.82659 1.3949 9.84767 1.50555 9.84671C1.6162 9.84575 1.72555 9.82276 1.82722 9.77909C1.92889 9.73541 2.02085 9.67193 2.09772 9.59233L2.34188 9.34817V14.8365C2.34188 15.4995 2.60528 16.1354 3.07412 16.6043C3.54296 17.0731 4.17884 17.3365 4.84188 17.3365H13.1752C13.8383 17.3365 14.4741 17.0731 14.943 16.6043C15.4118 16.1354 15.6752 15.4995 15.6752 14.8365V9.34817L15.9194 9.59233C16.0766 9.74413 16.2871 9.82813 16.5056 9.82623C16.7241 9.82433 16.9331 9.73669 17.0876 9.58218C17.2421 9.42768 17.3297 9.21867 17.3316 9.00017C17.3335 8.78167 17.2495 8.57117 17.0977 8.414L9.59772 0.914002Z" fill="#FFB804"/>
</svg>
