<svg width="16" height="17" viewBox="0 0 16 17" fill="none" xmlns="http://www.w3.org/2000/svg">
<path fill-rule="evenodd" clip-rule="evenodd" d="M9.39943 0.126667C9.0911 -4.47035e-08 8.69943 0 7.91693 0C7.13443 0 6.7436 -4.47035e-08 6.43443 0.126667C6.231 0.209788 6.04602 0.332318 5.89013 0.487206C5.73425 0.642093 5.61053 0.82628 5.5261 1.02917C5.44776 1.215 5.41776 1.4325 5.40526 1.74833C5.39932 1.97708 5.33532 2.20057 5.21929 2.3978C5.10325 2.59502 4.93899 2.75952 4.74193 2.87583C4.54088 2.98759 4.31488 3.04679 4.08487 3.04795C3.85485 3.04912 3.62827 2.99221 3.4261 2.8825C3.14443 2.73417 2.94026 2.6525 2.7386 2.62583C2.29742 2.56827 1.85132 2.68683 1.49693 2.95583C1.23193 3.1575 1.0361 3.49417 0.645263 4.16667C0.253596 4.83917 0.0585963 5.175 0.0144296 5.50417C-0.0439037 5.9425 0.0760963 6.38583 0.347763 6.73667C0.471096 6.89667 0.645263 7.03083 0.91443 7.19917C1.31193 7.44667 1.56693 7.86833 1.56693 8.33333C1.56693 8.79833 1.31193 9.22 0.915263 9.46667C0.645263 9.63583 0.471096 9.77 0.34693 9.93C0.213235 10.1035 0.115054 10.3017 0.058001 10.5132C0.000947926 10.7246 -0.0138582 10.9453 0.0144296 11.1625C0.0585963 11.4908 0.253596 11.8275 0.645263 12.5C1.03693 13.1725 1.23193 13.5083 1.49693 13.7108C1.85026 13.98 2.29693 14.0983 2.7386 14.0408C2.94026 14.0142 3.14443 13.9325 3.4261 13.7842C3.62837 13.6743 3.85511 13.6173 4.08529 13.6185C4.31546 13.6196 4.54162 13.6789 4.74276 13.7908C5.14776 14.0242 5.38776 14.4533 5.40526 14.9183C5.41776 15.235 5.44776 15.4517 5.5261 15.6375C5.6961 16.0458 6.02276 16.3708 6.43443 16.54C6.74276 16.6667 7.13443 16.6667 7.91693 16.6667C8.69943 16.6667 9.0911 16.6667 9.39943 16.54C9.60286 16.4569 9.78784 16.3343 9.94373 16.1795C10.0996 16.0246 10.2233 15.8404 10.3078 15.6375C10.3861 15.4517 10.4161 15.235 10.4286 14.9183C10.4453 14.4533 10.6861 14.0233 11.0919 13.7908C11.293 13.6791 11.519 13.6199 11.749 13.6187C11.979 13.6175 12.2056 13.6745 12.4078 13.7842C12.6894 13.9325 12.8936 14.0142 13.0953 14.0408C13.5369 14.0992 13.9836 13.98 14.3369 13.7108C14.6019 13.5092 14.7978 13.1725 15.1886 12.5C15.5803 11.8275 15.7753 11.4917 15.8194 11.1625C15.8476 10.9452 15.8327 10.7245 15.7755 10.5131C15.7183 10.3016 15.6199 10.1034 15.4861 9.93C15.3628 9.77 15.1886 9.63583 14.9194 9.4675C14.5219 9.22 14.2669 8.79833 14.2669 8.33333C14.2669 7.86833 14.5219 7.44667 14.9186 7.2C15.1886 7.03083 15.3628 6.89667 15.4869 6.73667C15.6206 6.56316 15.7188 6.36499 15.7759 6.15351C15.8329 5.94203 15.8477 5.72137 15.8194 5.50417C15.7753 5.17583 15.5803 4.83917 15.1886 4.16667C14.7969 3.49417 14.6019 3.15833 14.3369 2.95583C13.9825 2.68683 13.5364 2.56827 13.0953 2.62583C12.8936 2.6525 12.6894 2.73417 12.4078 2.8825C12.2055 2.99236 11.9788 3.04935 11.7486 3.04818C11.5184 3.04702 11.2922 2.98773 11.0911 2.87583C10.8942 2.75942 10.7301 2.59488 10.6142 2.39766C10.4983 2.20044 10.4345 1.977 10.4286 1.74833C10.4161 1.43167 10.3861 1.215 10.3078 1.02917C10.2233 0.82628 10.0996 0.642093 9.94373 0.487206C9.78784 0.332318 9.60286 0.209788 9.39943 0.126667ZM7.91693 10.8333C9.3086 10.8333 10.4361 9.71417 10.4361 8.33333C10.4361 6.9525 9.30776 5.83333 7.91693 5.83333C6.5261 5.83333 5.39776 6.9525 5.39776 8.33333C5.39776 9.71417 6.5261 10.8333 7.91693 10.8333Z" fill="#FFB804"/>
</svg>
