<svg width="18" height="18" viewBox="0 0 18 18" fill="none" xmlns="http://www.w3.org/2000/svg">
<path d="M9.00876 1.29504C9.06391 1.29509 9.1172 1.31661 9.15622 1.35559L16.6484 8.84778L16.6738 8.88C16.6956 8.91391 16.7074 8.95434 16.707 8.99524C16.7064 9.04969 16.684 9.10223 16.6455 9.14075C16.6069 9.17917 16.5544 9.20082 16.5 9.20129C16.4454 9.20172 16.3927 9.18061 16.3535 9.1427L15.0498 7.83899V14.8361C15.0498 15.3333 14.8526 15.8106 14.5009 16.1622C14.1493 16.5139 13.6721 16.7111 13.1748 16.7111H4.84177C4.34462 16.711 3.86815 16.5137 3.51657 16.1622C3.16494 15.8106 2.96677 15.3333 2.96677 14.8361V7.83899L1.90036 8.90637L1.64841 9.15833C1.62925 9.17816 1.60634 9.19429 1.58102 9.2052C1.5556 9.21612 1.52763 9.22156 1.49997 9.2218C1.4725 9.22202 1.44534 9.21654 1.41989 9.20618C1.39429 9.1957 1.37012 9.17984 1.35056 9.16028C1.33122 9.14081 1.31602 9.11731 1.30563 9.09192C1.29527 9.06647 1.2898 9.03932 1.29001 9.01184C1.29025 8.98418 1.29569 8.9562 1.30661 8.93079C1.31753 8.90547 1.33365 8.88256 1.35349 8.8634L1.3613 8.85559L3.02829 7.18958L8.8613 1.35559C8.90034 1.31668 8.95362 1.29504 9.00876 1.29504Z" stroke="#484D59" stroke-width="1.25"/>
</svg>
