<svg width="18" height="17" viewBox="0 0 18 17" fill="none" xmlns="http://www.w3.org/2000/svg">
<path d="M6.34365 2.87333C6.84198 1.415 8.85698 1.37083 9.44781 2.74083L9.49782 2.87417L10.1703 4.84083C10.3244 5.29186 10.5735 5.70459 10.9007 6.05119C11.2279 6.39778 11.6256 6.67018 12.067 6.85L12.2478 6.9175L14.2145 7.58917C15.6728 8.0875 15.717 10.1025 14.3478 10.6933L14.2145 10.7433L12.2478 11.4158C11.7966 11.5698 11.3837 11.8189 11.037 12.146C10.6903 12.4732 10.4177 12.871 10.2378 13.3125L10.1703 13.4925L9.49865 15.46C9.00031 16.9183 6.98531 16.9625 6.39531 15.5933L6.34365 15.46L5.67198 13.4933C5.51796 13.0422 5.26896 12.6293 4.94177 12.2825C4.61457 11.9358 4.21681 11.6632 3.77531 11.4833L3.59531 11.4158L1.62865 10.7442C0.169481 10.2458 0.125315 8.23083 1.49531 7.64083L1.62865 7.58917L3.59531 6.9175C4.04634 6.76338 4.45907 6.51433 4.80567 6.18714C5.15226 5.85995 5.42466 5.46224 5.60448 5.02083L5.67198 4.84083L6.34365 2.87333ZM14.5878 1.50573e-07C14.7437 -1.96643e-07 14.8965 0.0437319 15.0288 0.126226C15.1611 0.208721 15.2676 0.326669 15.3361 0.466667L15.3761 0.564167L15.6678 1.41917L16.5236 1.71083C16.6799 1.76391 16.8168 1.86218 16.9172 1.99318C17.0175 2.12418 17.0767 2.28202 17.0872 2.44668C17.0977 2.61135 17.0592 2.77544 16.9763 2.91816C16.8935 3.06087 16.7702 3.17578 16.622 3.24833L16.5236 3.28833L15.6686 3.58L15.377 4.43583C15.3238 4.59202 15.2255 4.72891 15.0944 4.82916C14.9634 4.92941 14.8055 4.98849 14.6408 4.99893C14.4762 5.00938 14.3121 4.9707 14.1695 4.88782C14.0268 4.80493 13.912 4.68156 13.8395 4.53333L13.7995 4.43583L13.5078 3.58083L12.652 3.28917C12.4957 3.23609 12.3588 3.13782 12.2585 3.00682C12.1581 2.87582 12.0989 2.71798 12.0884 2.55332C12.0779 2.38865 12.1165 2.22456 12.1993 2.08184C12.2821 1.93913 12.4054 1.82422 12.5536 1.75167L12.652 1.71167L13.507 1.42L13.7986 0.564167C13.8548 0.399521 13.9612 0.256591 14.1027 0.155416C14.2442 0.0542408 14.4138 -0.000104401 14.5878 1.50573e-07Z" fill="#FFB804"/>
</svg>
