<svg width="15" height="17" viewBox="0 0 15 17" fill="none" xmlns="http://www.w3.org/2000/svg">
<path d="M7.5 0.625C9.28522 0.625 10.5609 0.626134 11.5303 0.757812C12.481 0.886979 13.0431 1.13152 13.457 1.5498C13.8718 1.969 14.1149 2.54037 14.2432 3.50488C14.3736 4.48655 14.375 5.77814 14.375 7.58203V11.7422C14.375 13.0472 14.3738 13.975 14.3018 14.6494C14.2279 15.3407 14.0919 15.5998 13.9648 15.7168V15.7178C13.7944 15.8751 13.5852 15.9805 13.3613 16.0244L13.2646 16.0391C13.0984 16.0581 12.8195 15.9933 12.2568 15.5947C11.7081 15.2059 11.0175 14.5967 10.0459 13.7373V13.7363L9.47168 13.2354C9.29603 13.0857 9.13456 12.9543 8.9834 12.8438C8.67299 12.6168 8.3597 12.4414 7.99023 12.3672H7.99121C7.74797 12.3176 7.49899 12.3052 7.25293 12.3301L7.00879 12.3672C6.63943 12.4414 6.32592 12.6168 6.01562 12.8438C5.71321 13.0649 5.3695 13.369 4.9541 13.7363V13.7373C3.98247 14.5968 3.29191 15.206 2.74316 15.5947C2.18095 15.9929 1.90234 16.0571 1.73633 16.0381H1.73535C1.47398 16.008 1.22854 15.8962 1.03516 15.7178V15.7168L0.987305 15.666C0.875034 15.5286 0.762892 15.2544 0.698242 14.6494C0.626218 13.9751 0.625 13.0474 0.625 11.7422V7.58105C0.625 5.77732 0.626302 4.48617 0.756836 3.50488C0.885075 2.54106 1.12799 1.96951 1.54297 1.5498C1.95689 1.13134 2.5193 0.887038 3.46973 0.757812C4.43907 0.626034 5.71473 0.625 7.5 0.625ZM5 2.08301C4.71002 2.08301 4.4304 2.18408 4.20801 2.36621L4.11621 2.44922C3.88187 2.68356 3.75009 3.00161 3.75 3.33301C3.75 3.66445 3.88189 3.98239 4.11621 4.2168C4.35063 4.45122 4.66848 4.58301 5 4.58301H10C10.3315 4.58301 10.6494 4.45122 10.8838 4.2168C11.1181 3.98239 11.25 3.66445 11.25 3.33301C11.2499 3.0016 11.1181 2.68356 10.8838 2.44922C10.6494 2.2149 10.3314 2.08301 10 2.08301H5Z" stroke="white" stroke-width="1.25"/>
</svg>
